<svg width="94" height="82" viewBox="0 0 94 82" fill="none" xmlns="http://www.w3.org/2000/svg">
<path d="M93.5602 25.9014C93.8885 24.2196 93.5202 22.5123 92.4594 20.8135C92.7557 19.1867 92.1992 17.6065 91.2986 16.5601C90.566 15.7086 89.6574 15.196 88.7167 15.0223C84.6537 5.9225 76.7959 0 67.3329 0C59.8954 0 52.7822 3.60095 47.8185 9.87931C47.3862 10.4258 46.6136 10.4258 46.1813 9.87931C41.2216 3.60095 34.1044 0 26.6709 0C17.2039 0 9.3301 5.92251 5.2631 15.0308C4.33041 15.2045 3.42974 15.7129 2.70121 16.5601C1.80054 17.6065 1.24413 19.1867 1.54035 20.8135C0.483572 22.5123 0.1153 24.2196 0.439539 25.9014C-0.389071 28.6212 0.0952851 30.8792 0.731755 32.3831C0.77979 34.603 1.84458 37.0178 3.57785 39.4918C4.29438 42.5378 5.31113 45.7109 6.6201 48.8416C6.51202 48.9221 6.40394 49.0026 6.29986 49.0958C5.37918 49.9515 5.04293 51.2987 5.43923 52.5273C7.86101 60.0342 12.4324 65.2238 19.0252 67.9563C19.8579 68.2994 20.7145 68.5918 21.5791 68.8544C32.6433 78.2677 41.702 81.0468 45.3967 81.8305C45.9291 81.9449 46.4655 82 47.0019 82C47.5423 82 48.0787 81.9449 48.6111 81.8305C52.2978 81.0468 61.3525 78.2635 72.4046 68.8544C73.2773 68.596 74.1379 68.3037 74.9745 67.9563C81.5674 65.2238 86.1428 60.0342 88.5646 52.5273C88.9568 51.2987 88.6166 49.9515 87.6999 49.0958C87.5958 49.0026 87.4838 48.9179 87.3757 48.8374C88.6926 45.6982 89.7174 42.5124 90.4419 39.4579C92.1632 36.9966 93.22 34.5945 93.272 32.3831C93.9045 30.8792 94.3889 28.6212 93.5602 25.9014Z" fill="url(#paint0_linear_298_2)"/>
<path d="M68.7853 7.12878C69.2002 6.8682 69.6953 6.79863 70.1593 6.88367C70.6565 6.97663 71.1739 7.26031 71.5373 7.78015C71.8999 8.29915 72.1181 9.06667 71.9914 10.1415C71.8458 11.3805 71.8187 13.4013 72.047 15.4169C72.2746 17.4259 72.759 19.4609 73.6554 20.7059C74.2153 21.4865 74.8308 22.0189 75.5441 22.3036C76.258 22.5884 77.0545 22.6186 77.964 22.4257C79.395 22.1223 81.2358 21.2909 82.9328 20.3778C84.6327 19.4632 86.2035 18.4591 87.0968 17.7997V17.7987C87.5292 17.4796 87.9823 17.4221 88.4025 17.5262C88.8275 17.6316 89.2252 17.9047 89.5275 18.2548C90.1577 18.99 90.5405 20.2812 89.5441 21.5243C88.0855 23.3433 86.4841 24.1494 84.759 25.0135H84.758C84.5899 25.0982 84.4229 25.1829 84.256 25.2675C84.0889 25.3522 83.921 25.4367 83.7531 25.5214L83.7511 25.5233C83.1628 25.8347 82.909 26.5612 83.1301 27.1884L83.1808 27.3124C83.4909 27.9734 84.2544 28.2536 84.8918 27.9139C85.211 27.7493 85.5291 27.5891 85.8537 27.4237C87.5964 26.5507 89.4153 25.6269 91.1271 23.66C91.3246 24.3457 91.3396 25.0076 91.1652 25.6591C90.8797 26.7308 90.1256 27.7079 89.1633 28.535C88.2023 29.3609 87.0451 30.0275 85.9758 30.4823L85.9748 30.4833C85.3206 30.7671 85.0154 31.5397 85.2697 32.2196L85.2707 32.2216C85.4721 32.7379 85.946 33.0624 86.4552 33.0624C86.6125 33.0623 86.7765 33.028 86.9308 32.9608V32.9618C87.7628 32.6056 89.8416 31.6085 91.5051 29.911C91.3953 30.5536 91.2089 31.1068 91.006 31.5497V31.5507C90.2871 33.1387 88.9216 34.4776 87.5539 34.9657H87.5529C86.8879 35.2067 86.5374 35.9662 86.756 36.6561L86.757 36.6571C86.936 37.2113 87.4272 37.5702 87.9601 37.5702C88.0973 37.5702 88.2384 37.5454 88.3713 37.4969C88.5815 37.4212 88.7884 37.3312 88.9924 37.2313C86.9016 40.443 83.2426 44.0988 78.8195 47.6971C74.1775 51.4736 68.707 55.1799 63.3595 58.2391C58.5825 60.972 51.2116 64.2653 43.2834 66.1483C35.3521 68.032 26.8843 68.4991 19.8996 65.6063C13.9928 63.1596 9.89315 58.4902 7.70329 51.7147C7.57798 51.3273 7.7828 51.0873 7.88298 50.9921L7.88396 50.993C7.97973 50.9025 8.21433 50.7315 8.54021 50.9022C13.9153 53.7123 21.6091 54.3373 29.3547 53.1464C37.1029 51.955 44.9284 48.9418 50.5734 44.4462C56.4269 39.7868 59.6079 36.8375 61.6076 33.6718C63.6087 30.5038 64.4214 27.13 65.5676 21.6493C65.6763 21.127 66.1991 18.1029 66.7209 15.0887C67.2434 12.0702 67.7647 9.06199 67.8722 8.55554C68.0269 7.84454 68.3726 7.38814 68.7853 7.12878Z" fill="white" stroke="black" stroke-width="0.3"/>
<path d="M85.7047 45.6257C85.4135 46.404 85.1025 47.1808 84.7711 47.9548C84.5711 48.0143 84.3707 48.0914 84.1725 48.1911L84.1656 48.195C83.3963 48.5987 82.5487 48.9521 81.6373 49.2595C83.063 48.0726 84.4322 46.8563 85.7047 45.6257Z" fill="white" stroke="#1F2937"/>
<path d="M85.4602 50.9022C85.7818 50.732 86.0196 50.9024 86.1154 50.993L86.1174 50.994C86.217 51.0853 86.4186 51.3246 86.2961 51.7147C84.1103 58.49 80.0035 63.1595 74.1008 65.6063C67.4217 68.3744 59.3848 68.0587 51.758 66.3807C56.8094 64.5909 61.2893 62.4675 64.5773 60.5877C67.7824 58.7522 71.6473 56.317 75.4875 53.5575C79.2243 53.2275 82.6569 52.3658 85.4592 50.9022H85.4602Z" fill="white" stroke="black" stroke-width="0.3"/>
<path d="M47.0013 68.263C52.0522 69.6951 57.4619 70.6722 62.7298 70.6722C63.69 70.6722 64.6462 70.6372 65.594 70.5687C57.9324 76.0455 51.8024 78.1232 48.6839 78.8714L48.0667 79.0111C47.3587 79.1617 46.6487 79.1617 45.9407 79.0111C43.0611 78.4 36.5938 76.4552 28.3665 70.5667C29.3269 70.637 30.2949 70.6722 31.2698 70.6722C36.5374 70.6722 41.9468 69.6949 47.0013 68.263Z" fill="#1F2937" stroke="#1F2937"/>
<path d="M8.32759 45.6553C9.59233 46.8751 10.9515 48.0828 12.3667 49.2618C11.454 48.9528 10.6055 48.5988 9.83443 48.1954L9.82661 48.1915L9.62056 48.0958C9.49731 48.043 9.37289 47.9981 9.24751 47.96C8.92097 47.1947 8.6149 46.4251 8.32759 45.6553Z" fill="white" stroke="#1F2937"/>
<path d="M23.8394 6.88269C24.3059 6.79744 24.8019 6.86804 25.2163 7.12878C25.6285 7.38808 25.9738 7.84436 26.1285 8.55554C26.3484 9.57132 26.5597 10.5957 26.7759 11.6337V11.6346C29.0688 22.5989 31.6704 35.0887 43.4253 44.4462V44.4471C43.7963 44.7444 44.1832 45.0298 44.5747 45.3124C36.8148 49.7243 27.2619 51.52 19.4273 50.952C13.1516 46.3659 7.74274 41.4249 5.01127 37.2323C5.21388 37.3323 5.41932 37.4231 5.62846 37.4969V37.4979C5.76118 37.5463 5.90253 37.5702 6.03959 37.5702C6.57679 37.5702 7.06377 37.2109 7.24271 36.6571L7.24369 36.6561C7.4484 36.0101 7.15771 35.3023 6.56889 35.0175L6.44682 34.9657L6.18998 34.8641C4.99614 34.3461 3.8376 33.2053 3.13725 31.8446L2.99369 31.5497C2.806 31.14 2.62926 30.6341 2.51615 30.0516L2.49174 29.9091C4.15569 31.6096 6.23841 32.6058 7.06986 32.9618V32.9608C7.22386 33.0278 7.38351 33.0623 7.54838 33.0624C8.05824 33.0624 8.52783 32.7373 8.72904 32.2216L8.73002 32.2206C8.98925 31.5394 8.67821 30.7668 8.02885 30.4833L8.02787 30.4823L7.62357 30.3026C6.67224 29.8589 5.68024 29.2578 4.83842 28.535C3.93526 27.7596 3.21485 26.8526 2.8931 25.8593L2.83451 25.6591C2.66356 25.0072 2.67504 24.345 2.87162 23.66C4.58325 25.6269 6.40248 26.5508 8.14896 27.4237V27.4247C8.30931 27.5074 8.46955 27.5893 8.62943 27.6708C8.7894 27.7523 8.94942 27.8326 9.10892 27.9149C9.70532 28.2279 10.4134 28.006 10.7554 27.4315L10.8189 27.3124C11.1274 26.6589 10.8752 25.8549 10.2486 25.5233L10.2466 25.5223L9.74662 25.2675C9.57958 25.1828 9.41245 25.0981 9.24662 25.0135H9.24467C7.62367 24.2034 6.11468 23.4446 4.73392 21.8544L4.45951 21.5243C3.46314 20.2812 3.84156 18.9898 4.47123 18.2548L4.47221 18.2557C4.7745 17.9056 5.1729 17.6317 5.59916 17.5262C6.02065 17.422 6.47441 17.4804 6.90678 17.7997H6.90775C7.80117 18.4591 9.37132 19.4634 11.0708 20.3778C12.7678 21.2909 14.6087 22.1223 16.0396 22.4257C16.9491 22.6186 17.7447 22.5884 18.4576 22.3036C19.17 22.0189 19.7845 21.4865 20.3443 20.7059C21.2407 19.461 21.7256 17.4259 21.9537 15.4169C22.1825 13.4015 22.1559 11.3807 22.0083 10.1415C21.8816 9.06667 22.0998 8.29915 22.4624 7.78015C22.8256 7.26057 23.3425 6.97581 23.8394 6.88269Z" fill="white" stroke="black" stroke-width="0.3"/>
<path d="M32.543 28.3942C32.543 28.3942 34.4272 28.3942 36.3113 28.3942C38.1954 28.3942 39.1375 27.8776 40.1973 26.6309C41.2572 25.3863 41.9637 22.4843 42.821 19.2669C43.3933 17.1199 44.5544 17.2983 44.9077 19.4743C44.9077 19.4743 47.3736 32.9599 47.6138 34.1008C47.8517 35.2417 48.895 35.0342 49.0293 34.1008C49.1329 33.3851 50.5272 27.135 51.1748 24.2475C51.5234 22.6917 52.6798 23.0029 53.1508 24.2475L53.9751 26.0107C54.7994 27.7739 56.3303 28.3942 58.5677 28.3942C60.8052 28.3942 63.2781 28.3942 63.2781 28.3942" stroke="white" stroke-width="1.5" stroke-linecap="round" stroke-linejoin="round"/>
<defs>
<linearGradient id="paint0_linear_298_2" x1="47" y1="0" x2="47" y2="82" gradientUnits="userSpaceOnUse">
<stop stop-color="#254799"/>
<stop offset="1" stop-color="#1F2937"/>
</linearGradient>
</defs>
</svg>
